<?xml version="1.0" standalone="no"?>
<!DOCTYPE svg PUBLIC "-//W3C//DTD SVG 20010904//EN"
 "http://www.w3.org/TR/2001/REC-SVG-20010904/DTD/svg10.dtd">
<svg version="1.0" xmlns="http://www.w3.org/2000/svg"
 width="700.000000pt" height="700.000000pt" viewBox="0 0 700.000000 700.000000"
 preserveAspectRatio="xMidYMid meet">
<metadata>
Created by potrace 1.14, written by Peter Selinger 2001-2017
</metadata>
<g transform="translate(0.000000,700.000000) scale(0.100000,-0.100000)"
fill="#000000" stroke="none">
<path d="M3205 6769 c-213 -19 -493 -76 -705 -144 -516 -167 -957 -440 -1347
-836 -1079 -1096 -1242 -2818 -388 -4099 316 -474 742 -855 1240 -1110 343
-175 677 -279 1086 -336 156 -22 633 -26 779 -6 271 37 485 86 703 162 1067
368 1876 1270 2125 2370 203 892 26 1828 -486 2575 -459 670 -1135 1142 -1918
1338 -339 85 -735 116 -1089 86z m678 -1638 c394 -79 666 -264 851 -579 85
-145 142 -305 161 -449 l7 -53 -335 0 -335 0 -22 68 c-76 230 -210 375 -404
438 -106 35 -311 44 -424 20 -200 -42 -355 -176 -463 -401 -89 -186 -127 -362
-136 -627 -15 -449 77 -745 293 -947 143 -134 294 -187 509 -178 323 13 514
169 621 510 l28 87 328 0 c180 0 328 -3 328 -7 -1 -28 -44 -197 -70 -275 -114
-339 -389 -645 -703 -780 -191 -83 -387 -114 -642 -105 -404 16 -714 146 -950
400 -81 86 -178 223 -225 316 -74 148 -136 359 -167 571 -25 167 -25 592 0
748 60 382 194 659 436 900 186 186 435 312 711 357 129 22 462 14 603 -14z"/>
</g>
</svg>
